<svg xmlns="http://www.w3.org/2000/svg" viewBox="0 0 480 360" role="img" aria-labelledby="title desc">
<!-- tokenwave:generated:v4 slug=cot_error_detection layout=flow -->
<title id="title">Long CoT Error Detection benchmark illustration</title>
<desc id="desc">A long chain of reasoning with the earliest incorrect step detected and marked.</desc>
<defs>
  <linearGradient id="accent" x1="0" y1="0" x2="1" y2="1"><stop stop-color="#0f766e"/><stop offset="1" stop-color="#2563eb"/></linearGradient>
  <filter id="shadow" x="-20%" y="-20%" width="140%" height="140%"><feDropShadow dx="0" dy="9" stdDeviation="12" flood-color="#1e293b" flood-opacity=".10"/></filter>
  <marker id="arrow" markerWidth="8" markerHeight="8" refX="6" refY="3" orient="auto"><path d="M0,0 L0,6 L7,3 z" fill="#2563eb"/></marker>
</defs>
<rect width="480" height="360" rx="28" fill="#f4f7fb"/>
<rect x="22" y="22" width="436" height="316" rx="28" fill="#ffffff" stroke="#dbe4ee" stroke-width="1.5" filter="url(#shadow)"/>
<path d="M 112.0 198 Q 176 180 240.0 198" fill="none" stroke="url(#accent)" stroke-width="2.6" opacity=".46" marker-end="url(#arrow)"/>
<path d="M 240.0 198 Q 304 180 368.0 198" fill="none" stroke="url(#accent)" stroke-width="2.6" opacity=".46" marker-end="url(#arrow)"/>
<g transform="translate(112 198) scale(1.32) translate(-112 -198)"><rect x="75" y="169" width="74" height="58" rx="12" fill="#ffffff" stroke="url(#accent)" stroke-width="1.7"/>
<text x="112.0" y="205" text-anchor="middle" font-family="IBM Plex Mono, Menlo, monospace" font-size="18" font-weight="700" fill="url(#accent)">1·2·3</text></g>
<g transform="translate(240 198) scale(1.32) translate(-240 -198)"><rect x="203" y="169" width="74" height="58" rx="12" fill="#ffffff" stroke="url(#accent)" stroke-width="1.7"/>
<text x="240.0" y="205" text-anchor="middle" font-family="IBM Plex Mono, Menlo, monospace" font-size="18" font-weight="700" fill="url(#accent)">×</text></g>
<g transform="translate(368 198) scale(1.32) translate(-368 -198)"><circle cx="363.0" cy="193" r="22" fill="#ffffff" stroke="url(#accent)" stroke-width="3"/>
<line x1="378.0" y1="209" x2="397.0" y2="226" stroke="url(#accent)" stroke-width="6" stroke-linecap="round"/>
<text x="363.0" y="201" text-anchor="middle" font-family="IBM Plex Mono, Menlo, monospace" font-size="20" font-weight="700" fill="#ff806e">!</text></g>
</svg>
