<svg xmlns="http://www.w3.org/2000/svg" viewBox="0 0 480 360" role="img" aria-labelledby="title desc">
<!-- tokenwave:generated:v4 slug=fullstack_bench layout=merge -->
<title id="title">FullStack Bench benchmark illustration</title>
<desc id="desc">A browser frontend connected through an API to a database and verified end to end.</desc>
<defs>
  <linearGradient id="accent" x1="0" y1="0" x2="1" y2="1"><stop stop-color="#2563eb"/><stop offset="1" stop-color="#7c3aed"/></linearGradient>
  <filter id="shadow" x="-20%" y="-20%" width="140%" height="140%"><feDropShadow dx="0" dy="9" stdDeviation="12" flood-color="#1e293b" flood-opacity=".10"/></filter>
  <marker id="arrow" markerWidth="8" markerHeight="8" refX="6" refY="3" orient="auto"><path d="M0,0 L0,6 L7,3 z" fill="#7c3aed"/></marker>
</defs>
<rect width="480" height="360" rx="28" fill="#f4f7fb"/>
<rect x="22" y="22" width="436" height="316" rx="28" fill="#ffffff" stroke="#dbe4ee" stroke-width="1.5" filter="url(#shadow)"/>
<path d="M 124 166 Q 237 148 350 198" fill="none" stroke="url(#accent)" stroke-width="2.6" opacity=".46" marker-end="url(#arrow)"/>
<path d="M 124 226 Q 237 180 350 198" fill="none" stroke="url(#accent)" stroke-width="2.6" opacity=".46" marker-end="url(#arrow)"/>
<g transform="translate(124 166) scale(1.32) translate(-124 -166)"><rect x="83" y="137" width="82" height="58" rx="8" fill="#ffffff" stroke="#dbe4ee" stroke-width="1.7"/>
<line x1="83" y1="152" x2="165" y2="152" stroke="#dbe4ee" stroke-width="1.5"/>
<circle cx="95" cy="145" r="2.2" fill="url(#accent)"/>
<circle cx="104" cy="145" r="2.2" fill="#dbe4ee"/>
<circle cx="113" cy="145" r="2.2" fill="#dbe4ee"/>
<rect x="97" y="161" width="54" height="25" rx="3" fill="none" stroke="#94a3b8" opacity=".75"/>
<circle cx="108" cy="171" r="5" fill="url(#accent)" opacity=".7"/></g>
<g transform="translate(124 226) scale(1.32) translate(-124 -226)"><path d="M 93 208 C 93 196 155 196 155 208 V 246 C 155 258 93 258 93 246 Z" fill="#ffffff" stroke="url(#accent)" stroke-width="2"/>
<ellipse cx="124" cy="208" rx="31" ry="10" fill="#ffffff" stroke="url(#accent)" stroke-width="2"/></g>
<g transform="translate(350 198) scale(1.32) translate(-350 -198)"><circle cx="350" cy="198" r="27" fill="url(#accent)" opacity=".16" stroke="url(#accent)" stroke-width="2"/>
<path d="M 337 198 L 347 208 L 366 185" fill="none" stroke="url(#accent)" stroke-width="5" stroke-linecap="round" stroke-linejoin="round"/></g>
</svg>
