<svg xmlns="http://www.w3.org/2000/svg" viewBox="0 0 480 360" role="img" aria-labelledby="title desc">
<!-- tokenwave:generated:v2 slug=kor_bench layout=flow -->
<title id="title">KOR-Bench benchmark illustration</title>
<desc id="desc">Novel symbolic rules applied through a reasoning chain without relying on memorized knowledge.</desc>
<defs>
  <linearGradient id="bg" x1="0" y1="0" x2="1" y2="1"><stop stop-color="#0b1930"/><stop offset="1" stop-color="#07111f"/></linearGradient>
  <radialGradient id="halo"><stop stop-color="#25c2a0" stop-opacity=".22"/><stop offset="1" stop-color="#25c2a0" stop-opacity="0"/></radialGradient>
  <pattern id="grid" width="24" height="24" patternUnits="userSpaceOnUse"><path d="M 24 0 L 0 0 0 24" fill="none" stroke="#2b3b53" stroke-width=".7" opacity=".32"/></pattern>
  <marker id="arrow" markerWidth="8" markerHeight="8" refX="6" refY="3" orient="auto"><path d="M0,0 L0,6 L7,3 z" fill="#25c2a0"/></marker>
</defs>
<rect width="480" height="360" rx="18" fill="url(#bg)"/>
<rect width="480" height="360" rx="18" fill="url(#grid)"/>
<circle cx="81" cy="107" r="145" fill="url(#halo)"/>
<path d="M 28 77 H 452" stroke="#31435d" stroke-width="1" opacity=".7"/>
<text x="28" y="41" text-anchor="start" font-family="IBM Plex Mono, Menlo, monospace" font-size="15" font-weight="700" fill="#e8eef9">KOR-Bench</text>
<text x="452" y="41" text-anchor="end" font-family="IBM Plex Mono, Menlo, monospace" font-size="9.5" font-weight="700" fill="#25c2a0">LLM</text>
<path d="M 72.0 184 L 240.0 184" fill="none" stroke="#25c2a0" stroke-width="2" opacity=".55" marker-end="url(#arrow)"/>
<path d="M 240.0 184 L 408.0 184" fill="none" stroke="#25c2a0" stroke-width="2" opacity=".55" marker-end="url(#arrow)"/>
<rect x="35" y="155" width="74" height="58" rx="9" fill="#101d30" stroke="#25c2a0" stroke-width="1.7"/>
<text x="72.0" y="191" text-anchor="middle" font-family="IBM Plex Mono, Menlo, monospace" font-size="18" font-weight="700" fill="#25c2a0">⊕  △  ≡</text>
<text x="72.0" y="232" text-anchor="middle" font-family="IBM Plex Mono, Menlo, monospace" font-size="10.5" font-weight="600" fill="#c7d3e5">novel rules</text>
<rect x="203" y="155" width="74" height="58" rx="12" fill="#101d30" stroke="#25c2a0" stroke-width="1.7"/>
<text x="240.0" y="191" text-anchor="middle" font-family="IBM Plex Mono, Menlo, monospace" font-size="18" font-weight="700" fill="#25c2a0">1·2·3</text>
<text x="240.0" y="232" text-anchor="middle" font-family="IBM Plex Mono, Menlo, monospace" font-size="10.5" font-weight="600" fill="#c7d3e5">reason</text>
<path d="M 382.0 157 H 426.0 L 440.0 171 V 211 H 382.0 Z" fill="#101d30" stroke="#25c2a0" stroke-width="2"/>
<path d="M 426.0 157 V 171 H 440.0" fill="none" stroke="#25c2a0" stroke-width="2"/>
<line x1="389.0" y1="176" x2="430.0" y2="176" stroke="#c7d3e5" stroke-width="2" opacity=".75"/>
<line x1="389.0" y1="185" x2="427.0" y2="185" stroke="#c7d3e5" stroke-width="2" opacity=".75"/>
<line x1="389.0" y1="194" x2="424.0" y2="194" stroke="#c7d3e5" stroke-width="2" opacity=".75"/>
<text x="408.0" y="232" text-anchor="middle" font-family="IBM Plex Mono, Menlo, monospace" font-size="10.5" font-weight="600" fill="#c7d3e5">answer</text>
</svg>
