<svg xmlns="http://www.w3.org/2000/svg" viewBox="0 0 480 360">
<!-- tokenwave:generated -->
<rect width="480" height="360" fill="#ffffff"/>
<rect x="14" y="14" width="452" height="300" fill="none" stroke="#e5e7eb" stroke-width="1.5" rx="6"/>
<rect x="84" y="92" width="32" height="32" fill="#d97706" opacity="0.32" rx="5"/>
<rect x="124" y="92" width="32" height="32" fill="#d97706" opacity="0.10" rx="5"/>
<rect x="164" y="92" width="32" height="32" fill="#d97706" opacity="0.10" rx="5"/>
<rect x="204" y="92" width="32" height="32" fill="#d97706" opacity="0.72" rx="5"/>
<rect x="244" y="92" width="32" height="32" fill="#d97706" opacity="0.10" rx="5"/>
<rect x="284" y="92" width="32" height="32" fill="#d97706" opacity="0.72" rx="5"/>
<rect x="324" y="92" width="32" height="32" fill="#d97706" opacity="0.10" rx="5"/>
<rect x="364" y="92" width="32" height="32" fill="#d97706" opacity="0.72" rx="5"/>
<rect x="84" y="132" width="32" height="32" fill="#d97706" opacity="0.72" rx="5"/>
<rect x="124" y="132" width="32" height="32" fill="#d97706" opacity="0.10" rx="5"/>
<rect x="164" y="132" width="32" height="32" fill="#d97706" opacity="0.10" rx="5"/>
<rect x="204" y="132" width="32" height="32" fill="#d97706" opacity="0.10" rx="5"/>
<rect x="244" y="132" width="32" height="32" fill="#d97706" opacity="0.10" rx="5"/>
<rect x="284" y="132" width="32" height="32" fill="#d97706" opacity="0.10" rx="5"/>
<rect x="324" y="132" width="32" height="32" fill="#d97706" opacity="0.72" rx="5"/>
<rect x="364" y="132" width="32" height="32" fill="#d97706" opacity="0.32" rx="5"/>
<rect x="84" y="172" width="32" height="32" fill="#d97706" opacity="0.10" rx="5"/>
<rect x="124" y="172" width="32" height="32" fill="#d97706" opacity="0.10" rx="5"/>
<rect x="164" y="172" width="32" height="32" fill="#d97706" opacity="0.10" rx="5"/>
<rect x="204" y="172" width="32" height="32" fill="#d97706" opacity="0.10" rx="5"/>
<rect x="244" y="172" width="32" height="32" fill="#d97706" opacity="0.10" rx="5"/>
<rect x="284" y="172" width="32" height="32" fill="#d97706" opacity="0.10" rx="5"/>
<rect x="324" y="172" width="32" height="32" fill="#d97706" opacity="0.32" rx="5"/>
<rect x="364" y="172" width="32" height="32" fill="#d97706" opacity="0.10" rx="5"/>
<rect x="84" y="212" width="32" height="32" fill="#d97706" opacity="0.32" rx="5"/>
<rect x="124" y="212" width="32" height="32" fill="#d97706" opacity="0.32" rx="5"/>
<rect x="164" y="212" width="32" height="32" fill="#d97706" opacity="0.72" rx="5"/>
<rect x="204" y="212" width="32" height="32" fill="#d97706" opacity="0.32" rx="5"/>
<rect x="244" y="212" width="32" height="32" fill="#d97706" opacity="0.72" rx="5"/>
<rect x="284" y="212" width="32" height="32" fill="#d97706" opacity="0.10" rx="5"/>
<rect x="324" y="212" width="32" height="32" fill="#d97706" opacity="0.72" rx="5"/>
<rect x="364" y="212" width="32" height="32" fill="#d97706" opacity="0.72" rx="5"/>
<rect x="84" y="252" width="32" height="32" fill="#d97706" opacity="0.10" rx="5"/>
<rect x="124" y="252" width="32" height="32" fill="#d97706" opacity="0.10" rx="5"/>
<rect x="164" y="252" width="32" height="32" fill="#d97706" opacity="0.10" rx="5"/>
<rect x="204" y="252" width="32" height="32" fill="#d97706" opacity="0.72" rx="5"/>
<rect x="244" y="252" width="32" height="32" fill="#d97706" opacity="0.10" rx="5"/>
<rect x="284" y="252" width="32" height="32" fill="#d97706" opacity="0.10" rx="5"/>
<rect x="324" y="252" width="32" height="32" fill="#d97706" opacity="0.72" rx="5"/>
<rect x="364" y="252" width="32" height="32" fill="#d97706" opacity="0.10" rx="5"/>
<text x="240" y="76" text-anchor="middle" font-family="Menlo, Consolas, monospace" font-size="11" fill="#374151" font-weight="bold">image understanding · per-dimension scores</text>
<text x="240" y="308" text-anchor="middle" font-family="Menlo, Consolas, monospace" font-size="10" fill="#9ca3af">dimensions ×  models</text>
<text x="240" y="345" text-anchor="middle" font-family="Menlo, Consolas, monospace" font-size="12.5" fill="#6b7280">Figure 1: Efficient holistic MLLM evaluation.</text>
</svg>
