<svg xmlns="http://www.w3.org/2000/svg" viewBox="0 0 480 360" role="img" aria-labelledby="title desc">
<!-- tokenwave:generated:v4 slug=mammoth2 layout=flow -->
<title id="title">MAmmoTH2 benchmark illustration</title>
<desc id="desc">Web documents mined and refined into roughly ten million instruction-response pairs for training.</desc>
<defs>
  <linearGradient id="accent" x1="0" y1="0" x2="1" y2="1"><stop stop-color="#0f766e"/><stop offset="1" stop-color="#2563eb"/></linearGradient>
  <filter id="shadow" x="-20%" y="-20%" width="140%" height="140%"><feDropShadow dx="0" dy="9" stdDeviation="12" flood-color="#1e293b" flood-opacity=".10"/></filter>
  <marker id="arrow" markerWidth="8" markerHeight="8" refX="6" refY="3" orient="auto"><path d="M0,0 L0,6 L7,3 z" fill="#2563eb"/></marker>
</defs>
<rect width="480" height="360" rx="28" fill="#f4f7fb"/>
<rect x="22" y="22" width="436" height="316" rx="28" fill="#ffffff" stroke="#dbe4ee" stroke-width="1.5" filter="url(#shadow)"/>

<rect x="48" y="63" width="118" height="72" rx="13" fill="#fff" stroke="#334155" stroke-width="4"/><path d="M 48 88 H 166 M 67 106 H 143" stroke="#cbd5e1" stroke-width="5"/>
<rect x="83" y="147" width="118" height="72" rx="13" fill="#fff" stroke="#334155" stroke-width="4"/><path d="M 83 172 H 201 M 102 190 H 178" stroke="#cbd5e1" stroke-width="5"/>
<path d="M 177 67 H 324 L 279 181 V 218 L 222 249 V 181 Z" fill="#0f766e" fill-opacity=".09" stroke="url(#accent)" stroke-width="6" stroke-linejoin="round"/>
<path d="M 240 98 V 195" stroke="url(#accent)" stroke-width="7" marker-end="url(#arrow)"/>
<rect x="310" y="196" width="120" height="72" rx="14" fill="#fff" stroke="url(#accent)" stroke-width="5"/><path d="M 329 220 H 408 M 329 244 H 392" stroke="#334155" stroke-width="6" stroke-linecap="round"/>
<rect x="292" y="222" width="120" height="72" rx="14" fill="#fff" stroke="url(#accent)" stroke-width="5"/><path d="M 311 246 H 390 M 311 270 H 374" stroke="#334155" stroke-width="6" stroke-linecap="round"/>
<text x="354" y="121" text-anchor="middle" font-family="IBM Plex Mono, Menlo, monospace" font-size="42" font-weight="700" fill="#2563eb">10M</text>

</svg>
