<svg xmlns="http://www.w3.org/2000/svg" viewBox="0 0 480 360">
<!-- tokenwave:generated -->
<rect width="480" height="360" fill="#ffffff"/>
<rect x="14" y="14" width="452" height="300" fill="none" stroke="#e5e7eb" stroke-width="1.5" rx="6"/>
<rect x="43" y="134" width="82" height="46" fill="#ffffff" opacity="1" stroke="#475569" stroke-width="2" rx="8"/>
<text x="84.0" y="161.0" text-anchor="middle" font-family="Menlo, Consolas, monospace" font-size="11" fill="#374151">input</text>
<path d="M 128 157.0 L 141 157.0" stroke="#6b7280" stroke-width="2"/>
<path d="M 137 152.0 L 143 157.0 L 137 162.0" fill="none" stroke="#6b7280" stroke-width="2"/>
<rect x="147" y="134" width="82" height="46" fill="#ffffff" opacity="1" stroke="#475569" stroke-width="2" rx="8"/>
<text x="188.0" y="161.0" text-anchor="middle" font-family="Menlo, Consolas, monospace" font-size="11" fill="#374151">plan</text>
<path d="M 232 157.0 L 245 157.0" stroke="#6b7280" stroke-width="2"/>
<path d="M 241 152.0 L 247 157.0 L 241 162.0" fill="none" stroke="#6b7280" stroke-width="2"/>
<rect x="251" y="134" width="82" height="46" fill="#ffffff" opacity="1" stroke="#475569" stroke-width="2" rx="8"/>
<text x="292.0" y="161.0" text-anchor="middle" font-family="Menlo, Consolas, monospace" font-size="11" fill="#374151">act</text>
<path d="M 336 157.0 L 349 157.0" stroke="#6b7280" stroke-width="2"/>
<path d="M 345 152.0 L 351 157.0 L 345 162.0" fill="none" stroke="#6b7280" stroke-width="2"/>
<rect x="355" y="134" width="82" height="46" fill="#d97706" opacity="0.9" stroke="#d97706" stroke-width="2" rx="8"/>
<text x="396.0" y="161.0" text-anchor="middle" font-family="Menlo, Consolas, monospace" font-size="11" fill="#ffffff" font-weight="bold">verify</text>
<path d="M 372 186 C 240 236 125 236 84 188" stroke="#9ca3af" stroke-width="1.6" stroke-dasharray="5 4" fill="none"/>
<text x="240" y="246" text-anchor="middle" font-family="Menlo, Consolas, monospace" font-size="10" fill="#6b7280">iterate until constraints hold</text>
<text x="240" y="92" text-anchor="middle" font-family="Menlo, Consolas, monospace" font-size="11" fill="#374151" font-weight="bold">instruction following</text>
<text x="240" y="345" text-anchor="middle" font-family="Menlo, Consolas, monospace" font-size="12.5" fill="#6b7280">Figure 1: Multi-turn instruction following.</text>
</svg>
