<svg xmlns="http://www.w3.org/2000/svg" viewBox="0 0 480 360" role="img" aria-labelledby="title desc">
<!-- tokenwave:generated:v4 slug=mt_video_bench layout=orbit -->
<title id="title">MT-Video-Bench benchmark illustration</title>
<desc id="desc">Multiple conversational turns pointing to different moments in the same video.</desc>
<defs>
  <linearGradient id="accent" x1="0" y1="0" x2="1" y2="1"><stop stop-color="#4f46e5"/><stop offset="1" stop-color="#c026d3"/></linearGradient>
  <filter id="shadow" x="-20%" y="-20%" width="140%" height="140%"><feDropShadow dx="0" dy="9" stdDeviation="12" flood-color="#1e293b" flood-opacity=".10"/></filter>
  <marker id="arrow" markerWidth="8" markerHeight="8" refX="6" refY="3" orient="auto"><path d="M0,0 L0,6 L7,3 z" fill="#c026d3"/></marker>
</defs>
<rect width="480" height="360" rx="28" fill="#f4f7fb"/>
<rect x="22" y="22" width="436" height="316" rx="28" fill="#ffffff" stroke="#dbe4ee" stroke-width="1.5" filter="url(#shadow)"/>
<path d="M 116 178 Q 233 160 350 202" fill="none" stroke="url(#accent)" stroke-width="2.6" opacity=".46" marker-end="url(#arrow)" stroke-dasharray="6 6"/>
<path d="M 116 230 Q 233 184 350 202" fill="none" stroke="url(#accent)" stroke-width="2.6" opacity=".46" marker-end="url(#arrow)" stroke-dasharray="6 6"/>
<g transform="translate(116 178) scale(1.32) translate(-116 -178)"><rect x="78" y="153" width="76" height="50" rx="7" fill="#ffffff" stroke="url(#accent)" stroke-width="2"/>
<rect x="83" y="156" width="6" height="5" rx="1" fill="#dbe4ee"/>
<rect x="83" y="195" width="6" height="5" rx="1" fill="#dbe4ee"/>
<rect x="98" y="156" width="6" height="5" rx="1" fill="#dbe4ee"/>
<rect x="98" y="195" width="6" height="5" rx="1" fill="#dbe4ee"/>
<rect x="113" y="156" width="6" height="5" rx="1" fill="#dbe4ee"/>
<rect x="113" y="195" width="6" height="5" rx="1" fill="#dbe4ee"/>
<rect x="128" y="156" width="6" height="5" rx="1" fill="#dbe4ee"/>
<rect x="128" y="195" width="6" height="5" rx="1" fill="#dbe4ee"/>
<rect x="143" y="156" width="6" height="5" rx="1" fill="#dbe4ee"/>
<rect x="143" y="195" width="6" height="5" rx="1" fill="#dbe4ee"/>
<path d="M 108 168 L 130 178 L 108 188 Z" fill="url(#accent)"/></g>
<g transform="translate(116 230) scale(1.32) translate(-116 -230)"><rect x="77" y="206" width="57" height="30" rx="11" fill="#ffffff" stroke="#94a3b8" stroke-width="1.8"/>
<rect x="103" y="233" width="54" height="28" rx="11" fill="url(#accent)" opacity=".72"/>
<line x1="89" y1="220" x2="120" y2="220" stroke="#94a3b8" stroke-width="3"/>
<line x1="116" y1="246" x2="143" y2="246" stroke="#0f172a" stroke-width="3" opacity=".8"/></g>
<g transform="translate(350 202) scale(1.32) translate(-350 -202)"><rect x="311" y="178" width="57" height="30" rx="11" fill="#ffffff" stroke="#94a3b8" stroke-width="1.8"/>
<rect x="337" y="205" width="54" height="28" rx="11" fill="url(#accent)" opacity=".72"/>
<line x1="323" y1="192" x2="354" y2="192" stroke="#94a3b8" stroke-width="3"/>
<line x1="350" y1="218" x2="377" y2="218" stroke="#0f172a" stroke-width="3" opacity=".8"/></g>
</svg>
