<svg xmlns="http://www.w3.org/2000/svg" viewBox="0 0 480 360" role="img" aria-labelledby="title desc">
<!-- tokenwave:generated:v4 slug=omnibench layout=merge -->
<title id="title">OmniBench benchmark illustration</title>
<desc id="desc">Text, image, and audio inputs combined by one tri-modal reasoning model.</desc>
<defs>
  <linearGradient id="accent" x1="0" y1="0" x2="1" y2="1"><stop stop-color="#4f46e5"/><stop offset="1" stop-color="#c026d3"/></linearGradient>
  <filter id="shadow" x="-20%" y="-20%" width="140%" height="140%"><feDropShadow dx="0" dy="9" stdDeviation="12" flood-color="#1e293b" flood-opacity=".10"/></filter>
  <marker id="arrow" markerWidth="8" markerHeight="8" refX="6" refY="3" orient="auto"><path d="M0,0 L0,6 L7,3 z" fill="#c026d3"/></marker>
</defs>
<rect width="480" height="360" rx="28" fill="#f4f7fb"/>
<rect x="22" y="22" width="436" height="316" rx="28" fill="#ffffff" stroke="#dbe4ee" stroke-width="1.5" filter="url(#shadow)"/>
<path d="M 124 166 Q 237 148 350 198" fill="none" stroke="url(#accent)" stroke-width="2.6" opacity=".46" marker-end="url(#arrow)"/>
<path d="M 124 226 Q 237 180 350 198" fill="none" stroke="url(#accent)" stroke-width="2.6" opacity=".46" marker-end="url(#arrow)"/>
<g transform="translate(124 166) scale(1.32) translate(-124 -166)"><rect x="87" y="137" width="74" height="58" rx="9" fill="#ffffff" stroke="url(#accent)" stroke-width="1.7"/>
<text x="124" y="173" text-anchor="middle" font-family="IBM Plex Mono, Menlo, monospace" font-size="18" font-weight="700" fill="url(#accent)">Tt</text></g>
<g transform="translate(124 226) scale(1.32) translate(-124 -226)"><rect x="90" y="218" width="4" height="16" rx="2" fill="url(#accent)" opacity=".85"/>
<rect x="97" y="211.5" width="4" height="29" rx="2" fill="#94a3b8" opacity=".85"/>
<rect x="104" y="218.5" width="4" height="15" rx="2" fill="#94a3b8" opacity=".85"/>
<rect x="111" y="212" width="4" height="28" rx="2" fill="url(#accent)" opacity=".85"/>
<rect x="118" y="219" width="4" height="14" rx="2" fill="#94a3b8" opacity=".85"/>
<rect x="125" y="212.5" width="4" height="27" rx="2" fill="#94a3b8" opacity=".85"/>
<rect x="132" y="219.5" width="4" height="13" rx="2" fill="url(#accent)" opacity=".85"/>
<rect x="139" y="213" width="4" height="26" rx="2" fill="#94a3b8" opacity=".85"/>
<rect x="146" y="220" width="4" height="12" rx="2" fill="#94a3b8" opacity=".85"/>
<rect x="153" y="213.5" width="4" height="25" rx="2" fill="url(#accent)" opacity=".85"/>
<rect x="160" y="220.5" width="4" height="11" rx="2" fill="#94a3b8" opacity=".85"/></g>
<g transform="translate(350 198) scale(1.32) translate(-350 -198)"><path d="M 324 171 H 368 L 382 185 V 225 H 324 Z" fill="#ffffff" stroke="url(#accent)" stroke-width="2"/>
<path d="M 368 171 V 185 H 382" fill="none" stroke="url(#accent)" stroke-width="2"/>
<line x1="331" y1="190" x2="372" y2="190" stroke="#94a3b8" stroke-width="2" opacity=".75"/>
<line x1="331" y1="199" x2="369" y2="199" stroke="#94a3b8" stroke-width="2" opacity=".75"/>
<line x1="331" y1="208" x2="366" y2="208" stroke="#94a3b8" stroke-width="2" opacity=".75"/></g>
</svg>
