<svg xmlns="http://www.w3.org/2000/svg" viewBox="0 0 480 360" role="img" aria-labelledby="title desc">
<!-- tokenwave:generated:v4 slug=opencoder layout=flow -->
<title id="title">OpenCoder benchmark illustration</title>
<desc id="desc">Raw code cleaned into a reproducible corpus, training recipe, and open model checkpoints.</desc>
<defs>
  <linearGradient id="accent" x1="0" y1="0" x2="1" y2="1"><stop stop-color="#0f766e"/><stop offset="1" stop-color="#2563eb"/></linearGradient>
  <filter id="shadow" x="-20%" y="-20%" width="140%" height="140%"><feDropShadow dx="0" dy="9" stdDeviation="12" flood-color="#1e293b" flood-opacity=".10"/></filter>
  <marker id="arrow" markerWidth="8" markerHeight="8" refX="6" refY="3" orient="auto"><path d="M0,0 L0,6 L7,3 z" fill="#2563eb"/></marker>
</defs>
<rect width="480" height="360" rx="28" fill="#f4f7fb"/>
<rect x="22" y="22" width="436" height="316" rx="28" fill="#ffffff" stroke="#dbe4ee" stroke-width="1.5" filter="url(#shadow)"/>
<path d="M 45 102 C 118 102 126 156 188 156" fill="none" stroke="#0f766e" stroke-width="9" stroke-linecap="round"/>
<path d="M 45 140 C 118 140 126 168 188 168" fill="none" stroke="#2563eb" stroke-width="9" stroke-linecap="round"/>
<path d="M 45 178 C 118 178 126 180 188 180" fill="none" stroke="#06b6d4" stroke-width="9" stroke-linecap="round"/>
<path d="M 45 216 C 118 216 126 192 188 192" fill="none" stroke="#22c55e" stroke-width="9" stroke-linecap="round"/>
<path d="M 45 254 C 118 254 126 204 188 204" fill="none" stroke="#f59e0b" stroke-width="9" stroke-linecap="round"/>
<rect x="184" y="88" width="112" height="184" rx="24" fill="#fff" stroke="#334155" stroke-width="6"/>
<path d="M 210 121 H 270 M 210 151 H 258 M 210 181 H 270 M 210 211 H 250 M 210 241 H 270" stroke="url(#accent)" stroke-width="7" stroke-linecap="round"/>
<path d="M 296 132 H 335 M 296 180 H 353 M 296 228 H 335" stroke="url(#accent)" stroke-width="7"/>
<rect x="337" y="101" width="94" height="70" rx="16" fill="#fff" stroke="url(#accent)" stroke-width="5"/>
<rect x="351" y="145" width="80" height="70" rx="16" fill="#fff" stroke="url(#accent)" stroke-width="5"/>
<rect x="337" y="190" width="94" height="70" rx="16" fill="#fff" stroke="url(#accent)" stroke-width="5"/>
<text x="384" y="144" text-anchor="middle" font-family="IBM Plex Mono, Menlo, monospace" font-size="23" font-weight="700" fill="#334155">7B</text><text x="391" y="188" text-anchor="middle" font-family="IBM Plex Mono, Menlo, monospace" font-size="23" font-weight="700" fill="#334155">8B</text><text x="384" y="233" text-anchor="middle" font-family="IBM Plex Mono, Menlo, monospace" font-size="28" font-weight="700" fill="#10b981">✓</text>

</svg>
