<svg xmlns="http://www.w3.org/2000/svg" viewBox="0 0 480 360" role="img" aria-labelledby="title desc">
<!-- tokenwave:generated:v2 slug=rolellm layout=merge -->
<title id="title">RoleLLM benchmark illustration</title>
<desc id="desc">Character knowledge, speaking style, and persona traits conditioning role-play dialogue.</desc>
<defs>
  <linearGradient id="bg" x1="0" y1="0" x2="1" y2="1"><stop stop-color="#0b1930"/><stop offset="1" stop-color="#07111f"/></linearGradient>
  <radialGradient id="halo"><stop stop-color="#e16fae" stop-opacity=".22"/><stop offset="1" stop-color="#e16fae" stop-opacity="0"/></radialGradient>
  <pattern id="grid" width="24" height="24" patternUnits="userSpaceOnUse"><path d="M 24 0 L 0 0 0 24" fill="none" stroke="#2b3b53" stroke-width=".7" opacity=".32"/></pattern>
  <marker id="arrow" markerWidth="8" markerHeight="8" refX="6" refY="3" orient="auto"><path d="M0,0 L0,6 L7,3 z" fill="#e16fae"/></marker>
</defs>
<rect width="480" height="360" rx="18" fill="url(#bg)"/>
<rect width="480" height="360" rx="18" fill="url(#grid)"/>
<circle cx="150" cy="128" r="145" fill="url(#halo)"/>
<path d="M 28 77 H 452" stroke="#31435d" stroke-width="1" opacity=".7"/>
<text x="28" y="41" text-anchor="start" font-family="IBM Plex Mono, Menlo, monospace" font-size="15" font-weight="700" fill="#e8eef9">RoleLLM</text>
<text x="452" y="41" text-anchor="end" font-family="IBM Plex Mono, Menlo, monospace" font-size="9.5" font-weight="700" fill="#e16fae">LLM</text>
<path d="M 112 112.0 L 362 184" fill="none" stroke="#e16fae" stroke-width="2" opacity=".55" marker-end="url(#arrow)"/>
<path d="M 112 185.0 L 362 184" fill="none" stroke="#e16fae" stroke-width="2" opacity=".55" marker-end="url(#arrow)"/>
<path d="M 112 258.0 L 362 184" fill="none" stroke="#e16fae" stroke-width="2" opacity=".55" marker-end="url(#arrow)"/>
<rect x="75" y="83" width="74" height="58" rx="9" fill="#101d30" stroke="#e16fae" stroke-width="1.7"/>
<text x="112" y="119.0" text-anchor="middle" font-family="IBM Plex Mono, Menlo, monospace" font-size="18" font-weight="700" fill="#e16fae">≡</text>
<text x="112" y="160.0" text-anchor="middle" font-family="IBM Plex Mono, Menlo, monospace" font-size="10.5" font-weight="600" fill="#c7d3e5">knowledge</text>
<rect x="75" y="156" width="74" height="58" rx="9" fill="#101d30" stroke="#e16fae" stroke-width="1.7"/>
<text x="112" y="192.0" text-anchor="middle" font-family="IBM Plex Mono, Menlo, monospace" font-size="18" font-weight="700" fill="#e16fae">Aa</text>
<text x="112" y="233.0" text-anchor="middle" font-family="IBM Plex Mono, Menlo, monospace" font-size="10.5" font-weight="600" fill="#c7d3e5">style</text>
<circle cx="112" cy="247.0" r="18" fill="#e16fae" opacity=".22" stroke="#e16fae" stroke-width="2"/>
<path d="M 83 286.0 C 87 262.0 137 262.0 141 286.0" fill="#101d30" stroke="#e16fae" stroke-width="2"/>
<text x="112" y="306.0" text-anchor="middle" font-family="IBM Plex Mono, Menlo, monospace" font-size="10.5" font-weight="600" fill="#c7d3e5">persona</text>
<rect x="323" y="160" width="57" height="30" rx="11" fill="#101d30" stroke="#c7d3e5" stroke-width="1.8"/>
<rect x="349" y="187" width="54" height="28" rx="11" fill="#e16fae" opacity=".72"/>
<line x1="335" y1="174" x2="366" y2="174" stroke="#c7d3e5" stroke-width="3"/>
<line x1="362" y1="200" x2="389" y2="200" stroke="#e8eef9" stroke-width="3" opacity=".8"/>
<text x="362" y="232" text-anchor="middle" font-family="IBM Plex Mono, Menlo, monospace" font-size="10.5" font-weight="600" fill="#c7d3e5">dialogue</text>
</svg>
