<svg xmlns="http://www.w3.org/2000/svg" viewBox="0 0 480 360">
<!-- tokenwave:generated -->
<rect width="480" height="360" fill="#ffffff"/>
<rect x="14" y="14" width="452" height="300" fill="none" stroke="#e5e7eb" stroke-width="1.5" rx="6"/>
<rect x="76" y="76" width="196" height="40" fill="#ffffff" opacity="1" stroke="#475569" stroke-width="1.8" rx="14"/>
<line x1="94" y1="92" x2="254" y2="92" stroke="#e5e7eb" stroke-width="3" opacity="0.8"/>
<line x1="94" y1="103" x2="228" y2="103" stroke="#e5e7eb" stroke-width="3" opacity="0.5"/>
<rect x="208" y="128" width="190" height="40" fill="#0891b2" opacity="0.85" stroke="#0891b2" stroke-width="1.8" rx="14"/>
<line x1="226" y1="144" x2="380" y2="144" stroke="#ffffff" stroke-width="3" opacity="0.8"/>
<line x1="226" y1="155" x2="354" y2="155" stroke="#ffffff" stroke-width="3" opacity="0.5"/>
<rect x="76" y="180" width="168" height="40" fill="#ffffff" opacity="1" stroke="#475569" stroke-width="1.8" rx="14"/>
<line x1="94" y1="196" x2="226" y2="196" stroke="#e5e7eb" stroke-width="3" opacity="0.8"/>
<line x1="94" y1="207" x2="200" y2="207" stroke="#e5e7eb" stroke-width="3" opacity="0.5"/>
<rect x="232" y="232" width="166" height="40" fill="#0891b2" opacity="0.85" stroke="#0891b2" stroke-width="1.8" rx="14"/>
<line x1="250" y1="248" x2="380" y2="248" stroke="#ffffff" stroke-width="3" opacity="0.8"/>
<line x1="250" y1="259" x2="354" y2="259" stroke="#ffffff" stroke-width="3" opacity="0.5"/>
<text x="404" y="96" text-anchor="middle" font-family="Menlo, Consolas, monospace" font-size="10" fill="#6b7280">role</text>
<circle cx="404" cy="118" r="14" fill="none" stroke="#475569" stroke-width="2"/>
<path d="M 390 152 C 390 136 418 136 418 152" stroke="#475569" stroke-width="2" fill="none"/>
<text x="240" y="62" text-anchor="middle" font-family="Menlo, Consolas, monospace" font-size="11" fill="#374151" font-weight="bold">stay in character, turn after turn</text>
<text x="240" y="345" text-anchor="middle" font-family="Menlo, Consolas, monospace" font-size="12.5" fill="#6b7280">Figure 1: Role generation &amp; role-playing.</text>
</svg>
