<svg xmlns="http://www.w3.org/2000/svg" viewBox="0 0 480 360" role="img" aria-labelledby="title desc">
<!-- tokenwave:generated:v4 slug=supergpqa layout=orbit -->
<title id="title">SuperGPQA benchmark illustration</title>
<desc id="desc">Expert questions spanning hundreds of academic disciplines and long-tail subject knowledge.</desc>
<defs>
  <linearGradient id="accent" x1="0" y1="0" x2="1" y2="1"><stop stop-color="#0f766e"/><stop offset="1" stop-color="#2563eb"/></linearGradient>
  <filter id="shadow" x="-20%" y="-20%" width="140%" height="140%"><feDropShadow dx="0" dy="9" stdDeviation="12" flood-color="#1e293b" flood-opacity=".10"/></filter>
  <marker id="arrow" markerWidth="8" markerHeight="8" refX="6" refY="3" orient="auto"><path d="M0,0 L0,6 L7,3 z" fill="#2563eb"/></marker>
</defs>
<rect width="480" height="360" rx="28" fill="#f4f7fb"/>
<rect x="22" y="22" width="436" height="316" rx="28" fill="#ffffff" stroke="#dbe4ee" stroke-width="1.5" filter="url(#shadow)"/>
<circle cx="240" cy="180" r="44" fill="#fff" stroke="#334155" stroke-width="6"/>
<text x="240" y="194" text-anchor="middle" font-family="IBM Plex Mono, Menlo, monospace" font-size="40" font-weight="700" fill="#0f766e">?</text>
<circle cx="240" cy="180" r="88" fill="none" stroke="#cbd5e1" stroke-width="4"/>
<circle cx="240" cy="92" r="10" fill="#fff" stroke="url(#accent)" stroke-width="4"/>
<circle cx="291.725" cy="108.807" r="10" fill="#fff" stroke="#cbd5e1" stroke-width="4"/>
<circle cx="323.693" cy="152.807" r="10" fill="#fff" stroke="#cbd5e1" stroke-width="4"/>
<circle cx="323.693" cy="207.193" r="10" fill="#fff" stroke="#cbd5e1" stroke-width="4"/>
<circle cx="291.725" cy="251.193" r="10" fill="#fff" stroke="url(#accent)" stroke-width="4"/>
<circle cx="240" cy="268" r="10" fill="#fff" stroke="#cbd5e1" stroke-width="4"/>
<circle cx="188.275" cy="251.193" r="10" fill="#fff" stroke="#cbd5e1" stroke-width="4"/>
<circle cx="156.307" cy="207.193" r="10" fill="#fff" stroke="#cbd5e1" stroke-width="4"/>
<circle cx="156.307" cy="152.807" r="10" fill="#fff" stroke="url(#accent)" stroke-width="4"/>
<circle cx="188.275" cy="108.807" r="10" fill="#fff" stroke="#cbd5e1" stroke-width="4"/>
<circle cx="240" cy="180" r="132" fill="none" stroke="#cbd5e1" stroke-width="4"/>
<circle cx="240" cy="48" r="7" fill="#fff" stroke="url(#accent)" stroke-width="4"/>
<circle cx="285.147" cy="55.9606" r="7" fill="#fff" stroke="#cbd5e1" stroke-width="4"/>
<circle cx="324.848" cy="78.8821" r="7" fill="#fff" stroke="#cbd5e1" stroke-width="4"/>
<circle cx="354.315" cy="114" r="7" fill="#fff" stroke="#cbd5e1" stroke-width="4"/>
<circle cx="369.995" cy="157.078" r="7" fill="#fff" stroke="url(#accent)" stroke-width="4"/>
<circle cx="369.995" cy="202.922" r="7" fill="#fff" stroke="#cbd5e1" stroke-width="4"/>
<circle cx="354.315" cy="246" r="7" fill="#fff" stroke="#cbd5e1" stroke-width="4"/>
<circle cx="324.848" cy="281.118" r="7" fill="#fff" stroke="#cbd5e1" stroke-width="4"/>
<circle cx="285.147" cy="304.039" r="7" fill="#fff" stroke="url(#accent)" stroke-width="4"/>
<circle cx="240" cy="312" r="7" fill="#fff" stroke="#cbd5e1" stroke-width="4"/>
<circle cx="194.853" cy="304.039" r="7" fill="#fff" stroke="#cbd5e1" stroke-width="4"/>
<circle cx="155.152" cy="281.118" r="7" fill="#fff" stroke="#cbd5e1" stroke-width="4"/>
<circle cx="125.685" cy="246" r="7" fill="#fff" stroke="url(#accent)" stroke-width="4"/>
<circle cx="110.005" cy="202.922" r="7" fill="#fff" stroke="#cbd5e1" stroke-width="4"/>
<circle cx="110.005" cy="157.078" r="7" fill="#fff" stroke="#cbd5e1" stroke-width="4"/>
<circle cx="125.685" cy="114" r="7" fill="#fff" stroke="#cbd5e1" stroke-width="4"/>
<circle cx="155.152" cy="78.8821" r="7" fill="#fff" stroke="url(#accent)" stroke-width="4"/>
<circle cx="194.853" cy="55.9606" r="7" fill="#fff" stroke="#cbd5e1" stroke-width="4"/>
<path d="M 372 180 C 328 151 302 164 276 180 H 240" fill="none" stroke="url(#accent)" stroke-width="8" marker-end="url(#arrow)"/>
</svg>
