<svg xmlns="http://www.w3.org/2000/svg" viewBox="0 0 480 360" role="img" aria-labelledby="title desc">
<!-- tokenwave:generated:v5 slug=usb -->
<title id="title">USB benchmark illustration</title>
<desc id="desc">Text, image, and audio attacks covered by one safety shield.</desc>
<rect width="480" height="360" fill="#F4F6FB"/>
<ellipse cx="240" cy="195" rx="195" ry="160" fill="#2563EB" opacity="0.07"/>
<rect x="102" y="54" width="92" height="66" rx="14" fill="#FFFFFF" stroke="#26313F" stroke-width="7" stroke-linejoin="round"/>
<text x="148" y="100" text-anchor="middle" font-family="'Segoe UI', 'Helvetica Neue', Arial, sans-serif" font-size="30" font-weight="700" fill="#2563EB">Tt</text>
<rect x="194" y="54" width="92" height="66" rx="14" fill="#FFFFFF" stroke="#26313F" stroke-width="7" stroke-linejoin="round"/>
<path d="M 210 106 L 228 80 L 242 94 L 252 82 L 268 106" fill="none" stroke="#26313F" stroke-width="5.5" stroke-linecap="round" stroke-linejoin="round"/>
<circle cx="254" cy="76" r="6" fill="#0D9488"/>
<rect x="286" y="54" width="92" height="66" rx="14" fill="#FFFFFF" stroke="#26313F" stroke-width="7" stroke-linejoin="round"/>
<rect x="302" y="75.3" width="7" height="23.4" rx="3.5" fill="#0D9488"/>
<rect x="315.2" y="68.7" width="7" height="36.6" rx="3.5" fill="#0D9488"/>
<rect x="328.5" y="69.4" width="7" height="35.1" rx="3.5" fill="#0D9488"/>
<rect x="341.8" y="76.9" width="7" height="20.2" rx="3.5" fill="#0D9488"/>
<rect x="355" y="70.5" width="7" height="33" rx="3.5" fill="#0D9488"/>
<path d="M 138.3 136.1 L 240 108.8 L 341.7 136.1 V 220.4 C 341.7 276.2 289.6 309.7 240 332 C 190.4 309.7 138.3 276.2 138.3 220.4 Z" fill="#FFFFFF" stroke="#26313F" stroke-width="7" stroke-linecap="round" stroke-linejoin="round"/>
<path d="M 200 208 L 228 238 L 284 174" fill="none" stroke="#059669" stroke-width="11" stroke-linecap="round" stroke-linejoin="round"/>
</svg>
